<?xml version="1.0" standalone="no"?>
<!DOCTYPE svg PUBLIC "-//W3C//DTD SVG 20010904//EN"
 "http://www.w3.org/TR/2001/REC-SVG-20010904/DTD/svg10.dtd">
<svg version="1.0" xmlns="http://www.w3.org/2000/svg"
 width="1874.000000pt" height="508.000000pt" viewBox="0 0 1874.000000 508.000000"
 preserveAspectRatio="xMidYMid meet">
<metadata>
Created by potrace 1.16, written by Peter Selinger 2001-2019
</metadata>
<g transform="translate(0.000000,508.000000) scale(0.100000,-0.100000)"
fill="#000000" stroke="none">
<path d="M16081 4141 c-14 -26 -14 -98 0 -107 6 -3 17 -22 25 -41 9 -21 26
-38 47 -47 46 -19 128 -47 157 -53 35 -8 100 -61 100 -81 0 -14 -10 -17 -47
-17 -45 0 -48 -2 -48 -25 0 -22 4 -25 40 -25 22 -1 47 3 57 7 19 9 28 -8 28
-52 0 -36 -16 -48 -79 -60 -29 -5 -57 -12 -62 -16 -38 -23 -91 45 -105 134 -7
46 14 62 49 37 32 -22 51 -2 32 35 -25 48 -59 67 -135 75 -57 6 -75 4 -95 -9
-29 -19 -65 -85 -65 -119 0 -31 32 -71 68 -86 44 -18 68 -85 40 -109 -7 -6
-26 -8 -41 -5 -21 4 -33 17 -54 59 -14 30 -33 60 -42 68 -28 25 -153 67 -216
72 -137 12 -166 28 -179 99 -10 53 -37 137 -49 153 -14 17 -91 69 -115 76 -27
9 -49 -18 -32 -39 7 -8 19 -15 26 -15 30 0 47 -61 46 -164 -2 -93 0 -102 29
-157 24 -45 37 -59 54 -59 12 0 25 -3 29 -7 4 -5 56 -8 114 -8 115 0 174 -15
203 -50 33 -39 31 -155 -2 -155 -6 0 -29 16 -52 35 -48 42 -74 44 -127 10 -60
-38 -72 -62 -61 -121 5 -27 7 -51 5 -53 -9 -10 -42 35 -49 66 -5 27 -2 34 20
49 35 23 28 43 -19 59 -51 18 -97 1 -125 -46 -22 -35 -22 -78 -1 -170 12 -55
14 -57 64 -77 28 -12 68 -24 89 -28 36 -6 55 -19 44 -31 -3 -2 -49 -11 -103
-18 -134 -19 -148 -31 -151 -123 -2 -81 14 -115 44 -96 12 8 18 23 18 46 0 52
21 71 69 65 64 -9 82 -52 50 -120 -15 -32 -20 -35 -77 -41 -44 -4 -78 -16
-127 -45 -79 -45 -132 -58 -149 -37 -17 20 -3 84 20 97 40 21 11 51 -70 70
-42 10 -93 -9 -114 -43 -37 -58 -28 -151 20 -208 30 -36 96 -72 116 -64 8 3
18 1 22 -5 9 -16 57 -13 101 5 86 35 142 63 149 73 9 15 70 14 82 -1 6 -7 13
-37 17 -67 l7 -53 -45 6 c-53 8 -128 -20 -163 -63 -30 -35 -31 -137 -4 -196
28 -58 65 -99 83 -93 21 8 29 58 17 102 -11 40 2 106 25 125 22 18 82 -13 112
-59 22 -34 26 -48 21 -87 -4 -38 -11 -52 -33 -68 -15 -11 -44 -34 -63 -51 -20
-17 -41 -33 -47 -35 -14 -5 -84 -87 -84 -99 0 -4 -12 -11 -27 -15 -38 -9 -49
10 -56 95 -9 107 -48 149 -156 170 -35 6 -63 5 -102 -5 -74 -20 -104 -19 -149
8 -37 21 -40 21 -56 5 -16 -15 -15 -19 10 -62 30 -52 108 -116 140 -116 12 1
41 5 66 10 41 8 47 7 68 -16 24 -27 28 -60 12 -113 -14 -49 2 -107 41 -147 30
-31 38 -34 93 -34 38 1 68 6 80 15 11 8 28 15 38 15 15 0 54 34 118 105 8 9
44 45 80 80 36 35 75 76 87 90 27 30 77 34 92 7 8 -15 2 -24 -35 -53 -24 -19
-47 -44 -50 -56 -4 -14 -14 -23 -26 -23 -33 0 -78 -54 -78 -93 0 -75 10 -96
70 -141 32 -24 67 -47 79 -51 23 -7 81 11 93 29 10 14 -2 34 -23 41 -11 4 -29
25 -40 47 -21 40 -21 41 -2 67 11 14 34 35 51 46 35 22 43 55 13 55 -19 0 -65
-31 -93 -65 -9 -11 -20 -46 -24 -77 -4 -32 -10 -58 -13 -58 -15 0 -51 42 -51
60 0 10 -3 25 -6 33 -7 20 150 177 177 177 10 0 19 -4 19 -10 0 -5 7 -10 15
-10 20 0 19 19 -5 58 -11 18 -20 43 -20 57 0 48 -78 60 -154 23 -24 -11 -49
-32 -56 -46 -15 -34 -214 -223 -255 -243 -63 -31 -100 -32 -132 -5 -28 24 -28
26 -25 120 3 85 1 101 -18 131 -32 51 -49 57 -124 44 -54 -9 -68 -8 -86 4 -19
13 -17 15 37 22 32 5 84 9 116 9 49 0 62 -4 85 -27 22 -23 27 -38 33 -108 6
-67 11 -86 31 -106 22 -21 30 -23 81 -17 44 5 60 12 69 28 18 34 147 156 199
187 26 16 54 41 63 54 9 14 25 25 36 25 26 0 26 27 0 35 -11 3 -23 18 -26 33
-4 15 -19 52 -34 82 -15 30 -31 63 -34 74 -5 14 -9 16 -20 7 -10 -8 -27 -8
-67 3 -56 15 -54 17 22 20 63 2 79 18 79 77 0 26 -4 50 -9 53 -5 3 -12 25 -15
50 -4 24 -13 52 -21 62 -14 18 -16 18 -29 1 -11 -14 -22 -16 -52 -11 -32 5
-46 1 -78 -21 -47 -32 -126 -65 -181 -75 -79 -16 -175 64 -175 146 0 27 40 74
64 74 12 0 14 -10 9 -50 -5 -42 -2 -55 18 -85 22 -32 28 -35 74 -35 53 0 85
10 180 55 38 19 78 29 109 30 71 2 92 34 111 167 l6 46 -46 23 c-25 12 -45 26
-45 31 0 4 24 8 53 8 64 0 97 27 97 78 0 30 -3 32 -62 50 -35 11 -77 23 -95
26 -17 4 -38 17 -46 29 -19 31 -29 122 -15 152 14 31 28 32 28 3 -1 -75 21
-114 91 -161 89 -60 153 -57 198 8 20 30 23 42 17 87 l-7 51 24 -16 c22 -14
26 -14 47 0 12 9 28 31 36 49 10 23 19 32 29 28 9 -4 18 1 21 10 8 20 2 27
-23 30 -12 2 -20 14 -24 39 -3 21 -13 45 -22 55 -10 10 -17 24 -17 30 0 7 -15
19 -32 27 -18 9 -49 24 -68 35 -39 21 -125 26 -163 9 -17 -8 -35 -8 -64 0 -36
10 -44 18 -70 70 -26 50 -29 66 -25 120 7 92 24 81 37 -24 7 -56 16 -70 64
-104 25 -18 49 -24 100 -26 66 -3 134 -16 181 -37 61 -26 76 -38 95 -75 11
-22 33 -57 48 -77 26 -34 32 -36 65 -30 61 10 69 13 80 40 28 60 6 128 -53
164 -48 30 -60 54 -44 91 14 36 36 49 83 49 38 0 45 -10 21 -30 -25 -21 -15
-81 28 -165 12 -22 26 -50 31 -61 8 -18 20 -22 63 -23 29 0 56 -2 60 -3 19 -4
123 25 134 38 9 10 15 11 25 3 7 -6 21 -8 32 -5 11 4 31 -3 51 -18 20 -15 54
-27 87 -32 29 -3 59 -12 65 -20 6 -8 21 -14 32 -14 11 0 26 -8 33 -17 13 -17
15 -17 28 0 7 9 20 17 28 17 7 0 31 17 51 38 30 31 39 48 44 89 6 51 5 51 -37
82 -24 17 -49 31 -56 31 -15 0 -69 79 -60 87 3 3 22 -8 43 -24 21 -17 48 -34
61 -38 13 -4 39 -20 57 -37 33 -28 55 -30 55 -5 -1 21 -57 75 -102 96 -23 11
-71 46 -106 76 -51 45 -66 54 -78 44 -16 -13 -19 -45 -5 -53 4 -3 11 -19 14
-36 9 -43 42 -113 64 -132 10 -9 35 -23 55 -31 20 -8 41 -25 47 -36 23 -42
-40 -111 -100 -111 -11 0 -34 11 -51 25 -19 16 -42 25 -65 25 -20 0 -51 10
-70 22 l-35 21 6 68 c8 75 -5 118 -49 171 -52 61 -165 120 -244 126 -48 4 -60
10 -93 44 -21 22 -44 38 -51 35 -8 -3 -13 4 -12 21 0 33 -29 41 -44 13z m95
-120 c14 -18 81 -41 121 -41 39 0 147 -62 190 -109 45 -49 53 -111 27 -203
-10 -34 -24 -18 -24 26 0 42 -18 107 -42 154 -13 26 -101 92 -122 92 -7 0 -31
7 -52 17 -22 9 -55 19 -74 22 -28 5 -39 15 -59 51 l-24 45 24 -20 c13 -11 29
-26 35 -34z m-408 -572 l27 -21 -25 8 c-14 4 -36 7 -50 7 -24 -1 -24 -1 -5 13
24 18 22 18 53 -7z m-11 -57 c19 -12 26 -58 11 -73 -8 -8 -17 -22 -21 -32 -5
-14 -15 -17 -39 -15 -30 3 -33 6 -34 38 0 24 7 43 24 63 27 28 39 32 59 19z
m-333 -914 c-22 -43 -24 -45 -24 -20 0 18 23 52 36 52 2 0 -3 -15 -12 -32z"/>
<path d="M17585 3823 c-36 -18 -79 -58 -107 -96 -28 -40 -39 -135 -27 -250 13
-125 2 -167 -54 -220 -79 -73 -137 -84 -192 -36 -45 40 -45 67 0 115 19 20 35
46 35 56 0 11 14 38 31 60 26 33 34 37 45 26 10 -10 11 -23 4 -52 -10 -46 -6
-56 21 -56 35 0 63 80 56 158 -10 101 -32 121 -149 137 -44 6 -47 4 -73 -30
-24 -30 -27 -42 -23 -85 5 -49 4 -52 -31 -79 -31 -23 -44 -27 -93 -25 -31 1
-61 5 -67 8 -21 13 -11 39 28 72 30 27 39 42 44 78 9 64 -1 106 -25 106 -17 0
-19 -7 -17 -56 2 -56 2 -57 -44 -98 -52 -45 -68 -88 -44 -120 24 -32 167 -61
182 -36 3 6 14 10 23 10 10 0 34 11 55 25 34 24 37 29 37 75 0 27 5 61 10 76
10 25 14 26 57 21 32 -3 53 -12 65 -27 21 -26 16 -40 -12 -33 -31 8 -80 -35
-106 -94 -13 -30 -40 -69 -59 -88 -56 -57 -59 -135 -5 -182 68 -59 143 -65
225 -18 43 25 115 98 116 118 0 7 3 21 6 32 13 46 14 125 3 166 -30 107 -9
202 55 255 78 63 143 64 204 3 30 -30 21 -40 -13 -14 -34 26 -85 19 -131 -19
-53 -44 -70 -95 -54 -161 18 -70 7 -246 -17 -281 -10 -15 -28 -43 -39 -63 -33
-59 -113 -101 -192 -101 -42 0 -69 -44 -78 -127 -7 -60 -6 -63 17 -72 12 -5
33 -23 45 -39 18 -25 31 -31 65 -34 l43 -3 -41 -13 c-23 -7 -47 -19 -54 -27
-9 -11 -17 -12 -30 -5 -25 13 -33 -2 -19 -34 9 -20 9 -32 -5 -60 -9 -18 -16
-40 -16 -48 0 -28 37 -89 61 -102 121 -63 129 -65 209 -61 41 2 97 9 125 16
70 17 149 86 187 164 l29 60 -5 -63 c-7 -78 -16 -94 -84 -159 -64 -61 -83 -66
-246 -64 -140 1 -151 3 -206 35 -26 15 -60 26 -82 26 -33 0 -38 -4 -57 -43
-11 -23 -30 -50 -41 -60 -25 -21 -19 -36 37 -88 36 -34 134 -76 152 -65 4 3
17 -1 27 -9 10 -8 38 -15 61 -15 52 0 223 -76 223 -99 0 -13 26 -77 49 -121
12 -22 36 -18 39 5 4 27 -34 111 -57 127 -10 7 -21 24 -26 37 -9 29 -127 85
-200 94 -71 9 -112 20 -188 49 -51 20 -69 97 -27 123 9 6 60 -6 152 -34 14 -5
96 -8 181 -7 174 3 166 0 258 88 58 57 70 84 84 193 6 44 3 58 -22 105 -30 55
-58 73 -74 48 -5 -7 -7 -23 -4 -36 10 -41 -24 -129 -68 -177 -35 -37 -53 -48
-107 -62 -97 -25 -184 -21 -244 11 -77 41 -79 44 -72 99 3 27 12 60 21 73 17
26 83 49 183 62 54 8 67 6 85 -9 21 -17 21 -18 4 -54 -9 -20 -15 -40 -12 -45
3 -4 -11 -17 -30 -29 -37 -22 -44 -38 -20 -47 42 -17 141 55 179 129 28 56 32
82 16 92 -16 10 -40 -14 -40 -39 0 -11 -7 -30 -15 -40 -16 -21 -18 -16 -15 21
1 13 -10 33 -25 47 -25 23 -33 24 -111 21 -50 -2 -82 0 -79 6 4 5 17 9 29 9
24 0 42 15 48 39 4 20 66 51 100 51 35 0 72 -36 72 -69 1 -15 8 -27 17 -29 24
-4 32 28 13 49 -9 10 -13 23 -9 29 12 19 -65 83 -90 74 -11 -3 -35 -8 -54 -11
-25 -4 -36 -13 -46 -37 -10 -22 -26 -36 -60 -50 -59 -24 -109 -16 -146 22 -39
40 -45 72 -18 105 12 16 23 26 26 24 17 -18 166 43 189 78 50 72 84 129 93
158 14 41 18 206 7 273 -7 40 -5 57 8 83 25 47 57 56 116 30 47 -20 51 -20 96
-5 26 9 56 16 66 16 10 0 27 9 38 20 30 30 11 60 -38 60 -57 0 -114 19 -150
51 -27 24 -41 29 -85 29 -29 -1 -65 -8 -82 -17z"/>
<path d="M16353 3499 c-28 -15 -28 -19 -4 -65 28 -52 35 -128 20 -234 -12 -93
-17 -103 -83 -185 -40 -49 -26 -64 44 -46 42 11 66 10 161 -5 100 -16 119 -22
189 -66 95 -58 157 -128 199 -225 32 -73 37 -107 22 -132 -14 -22 -2 -41 26
-41 18 0 28 9 40 38 8 20 23 48 32 62 40 58 64 152 63 244 -2 120 -31 206 -88
264 -14 13 -21 29 -17 37 3 9 -2 23 -10 33 -9 9 -37 49 -64 88 -62 92 -92 126
-123 142 -14 6 -43 23 -65 37 -22 14 -47 28 -55 31 -8 3 -24 10 -34 16 -29 16
-226 21 -253 7z m287 -76 c19 -14 55 -38 80 -53 25 -16 56 -44 70 -62 44 -60
100 -147 100 -156 0 -5 9 -17 20 -27 11 -10 20 -23 20 -29 0 -6 11 -24 25 -40
14 -16 25 -37 25 -46 0 -9 4 -20 9 -25 13 -15 31 -99 31 -144 0 -47 -27 -159
-45 -184 -12 -17 -17 -10 -55 60 -45 83 -135 185 -185 209 -16 8 -53 30 -82
48 -46 29 -66 35 -160 45 -119 14 -129 17 -113 36 19 23 47 156 49 231 1 41
-5 90 -13 115 -8 23 -12 47 -9 52 3 5 47 6 102 2 80 -6 102 -11 131 -32z"/>
<path d="M17052 3333 c2 -10 8 -18 13 -18 5 0 11 8 13 18 2 10 -3 17 -13 17
-10 0 -15 -7 -13 -17z"/>
<path d="M17206 3123 c-12 -12 -6 -43 9 -43 8 0 15 9 15 19 0 21 -13 34 -24
24z"/>
<path d="M731 2764 c-180 -38 -276 -141 -315 -337 -40 -192 -47 -805 -11 -970
27 -131 105 -236 211 -287 97 -48 135 -53 431 -57 297 -5 381 2 476 37 103 39
180 135 207 260 14 65 26 440 16 493 l-7 37 -349 0 -350 0 0 -80 0 -80 261 0
262 0 -6 -157 c-9 -265 -35 -308 -206 -339 -93 -16 -408 -18 -518 -3 -98 13
-149 36 -190 82 -60 68 -72 169 -73 572 0 406 17 526 83 601 40 46 68 60 154
73 92 14 477 14 558 0 134 -23 180 -78 191 -231 l7 -88 88 0 89 0 0 94 c0 232
-103 355 -323 385 -117 16 -606 13 -686 -5z"/>
<path d="M11225 2766 c-156 -49 -205 -141 -205 -388 l0 -98 -85 0 -85 0 0 -75
0 -75 85 0 85 0 0 -505 0 -505 85 0 85 0 0 505 0 505 155 0 155 0 0 75 0 75
-156 0 -156 0 4 128 c6 201 37 235 211 230 l97 -3 0 73 0 72 -117 -1 c-65 0
-136 -6 -158 -13z"/>
<path d="M3220 1945 l0 -825 86 0 87 0 -7 69 -6 70 50 -49 c81 -79 134 -95
320 -95 138 0 161 3 211 23 117 47 184 118 219 230 42 134 48 392 15 582 -20
116 -51 187 -105 240 -67 68 -135 91 -281 97 -199 9 -330 -27 -388 -108 l-31
-42 0 316 0 317 -85 0 -85 0 0 -825z m593 195 c180 -26 221 -108 221 -440 0
-350 -48 -432 -259 -446 -165 -11 -290 26 -327 97 -37 72 -50 188 -46 398 4
152 9 206 22 241 33 87 102 134 219 149 87 12 94 12 170 1z"/>
<path d="M5460 2675 l0 -95 85 0 85 0 0 95 0 95 -85 0 -85 0 0 -95z"/>
<path d="M7160 1945 l0 -825 85 0 85 0 0 825 0 825 -85 0 -85 0 0 -825z"/>
<path d="M8250 1945 l0 -825 90 0 90 0 0 380 0 380 84 0 84 0 375 -380 375
-380 128 0 127 0 -423 426 -423 426 75 76 c41 43 189 199 328 347 139 149 276
294 304 323 l50 52 -121 0 -122 0 -338 -360 -338 -360 -82 0 -83 0 0 360 0
360 -90 0 -90 0 0 -825z"/>
<path d="M11640 1945 l0 -825 85 0 85 0 0 280 0 280 33 0 c30 0 51 -21 277
-280 l245 -279 113 -1 c88 0 111 3 106 13 -5 6 -132 144 -283 306 -152 161
-277 297 -279 302 -2 5 104 124 235 265 131 141 240 260 241 265 2 5 -42 9
-100 9 l-103 0 -205 -235 c-198 -227 -206 -234 -242 -235 l-38 0 0 480 0 480
-85 0 -85 0 0 -825z"/>
<path d="M4842 2285 c-76 -21 -105 -39 -151 -91 l-40 -46 6 66 6 67 -84 -3
-84 -3 0 -575 0 -575 85 0 85 0 5 435 c5 427 5 436 27 477 26 48 71 85 125
102 59 19 181 16 225 -6 60 -30 76 -60 81 -158 l5 -85 83 0 84 0 0 65 c0 165
-48 259 -160 316 -58 29 -217 37 -298 14z"/>
<path d="M2245 2283 c-113 -15 -198 -59 -233 -122 -18 -32 -40 -137 -42 -198
0 -10 23 -13 84 -13 l83 0 6 50 c13 112 67 148 234 157 65 3 136 1 179 -6 148
-25 175 -69 182 -295 l5 -150 -33 37 c-39 45 -97 64 -237 78 -117 11 -276 -1
-362 -26 -79 -24 -141 -90 -166 -175 -22 -77 -25 -232 -6 -300 45 -160 166
-215 464 -209 160 4 163 4 229 37 37 18 79 47 94 65 l27 32 -6 -62 -7 -63 85
0 85 0 0 431 c0 485 -5 535 -64 612 -74 97 -176 127 -416 125 -85 0 -168 -3
-185 -5z m310 -604 c38 -5 86 -18 105 -28 97 -49 121 -255 40 -331 -49 -46
-135 -64 -305 -64 -133 0 -155 2 -198 21 -66 30 -91 86 -91 198 0 135 42 189
156 204 91 12 212 12 293 0z"/>
<path d="M6200 2275 c-238 -49 -310 -182 -310 -575 1 -408 70 -530 327 -580
40 -8 123 -11 240 -8 201 6 279 23 345 78 52 43 88 121 95 209 l6 71 -92 0
-91 0 0 -42 c0 -24 -5 -60 -11 -81 -8 -32 -18 -42 -52 -57 -118 -52 -375 -52
-477 0 -76 39 -96 93 -107 278 l-6 102 416 0 417 0 0 53 c-1 125 -20 287 -43
349 -45 124 -109 178 -242 203 -95 18 -325 18 -415 0z m386 -140 c91 -27 124
-87 132 -237 l5 -98 -327 0 -326 0 0 43 c0 68 19 166 41 208 21 42 49 64 107
85 53 19 303 19 368 -1z"/>
<path d="M9957 2275 c-153 -31 -204 -92 -223 -262 l-7 -63 87 0 86 0 0 38 c0
20 9 56 20 80 15 34 29 47 67 65 42 19 66 21 193 22 163 0 218 -12 261 -54 39
-39 50 -87 56 -250 l6 -145 -32 37 c-40 45 -98 64 -238 78 -117 11 -276 -1
-363 -27 -74 -22 -142 -89 -163 -161 -36 -120 -30 -289 12 -371 56 -110 168
-152 403 -152 201 0 278 21 354 97 l36 36 -7 -62 -7 -61 86 0 86 0 0 418 c0
243 -5 444 -11 482 -20 124 -90 210 -202 246 -72 23 -403 29 -500 9z m357
-595 c139 -20 191 -79 190 -215 0 -105 -17 -138 -88 -171 -69 -32 -197 -47
-320 -40 -184 12 -230 55 -231 221 0 98 15 139 65 177 45 33 247 47 384 28z"/>
<path d="M12952 2279 c-161 -28 -228 -99 -239 -256 l-6 -73 87 0 86 0 0 49 c0
60 30 109 85 135 49 23 243 33 328 17 148 -27 170 -63 175 -286 l4 -150 -21
27 c-49 62 -253 97 -454 78 -132 -13 -209 -40 -258 -91 -57 -59 -74 -121 -74
-274 0 -122 2 -133 28 -188 32 -65 80 -103 167 -133 46 -16 84 -19 240 -19
217 0 260 10 338 80 l48 43 -4 -59 -4 -60 83 3 84 3 0 435 c-1 379 -3 443 -18
498 -29 107 -79 162 -186 204 -49 18 -80 21 -246 24 -104 2 -214 -1 -243 -7z
m408 -614 c85 -30 119 -87 120 -200 0 -152 -65 -197 -300 -212 -111 -6 -234
10 -270 35 -14 10 -35 38 -48 63 -21 39 -23 55 -20 136 3 74 8 98 24 120 34
45 69 65 131 74 89 12 310 3 363 -16z"/>
<path d="M5460 1700 l0 -580 85 0 85 0 -2 578 -3 577 -82 3 -83 3 0 -581z"/>
<path d="M17019 2243 c-50 -53 -82 -102 -76 -117 3 -7 27 -21 53 -31 45 -17
51 -17 95 -2 59 21 102 21 145 1 43 -21 72 -70 55 -96 -6 -10 -11 -30 -11 -44
0 -40 -21 -101 -42 -123 -10 -11 -18 -25 -18 -30 0 -10 -31 -31 -46 -31 -4 0
4 12 18 28 36 38 45 59 53 123 l7 56 -39 24 c-33 21 -48 24 -122 22 -65 -2
-99 2 -142 17 -84 30 -140 10 -169 -60 -6 -15 -20 -30 -31 -33 -21 -6 -26 -27
-6 -27 8 0 28 -20 46 -45 23 -32 42 -47 69 -54 20 -5 46 -12 57 -15 11 -3 -12
-4 -52 -3 -67 2 -77 6 -132 45 -33 23 -68 42 -79 42 -37 0 -79 -68 -53 -85 5
-3 7 -20 4 -38 -4 -27 1 -39 29 -69 38 -41 72 -54 161 -64 72 -7 91 -18 157
-85 45 -46 48 -53 55 -119 6 -61 4 -74 -15 -105 -13 -21 -32 -37 -48 -41 -15
-3 -40 -10 -55 -14 -16 -6 -58 -5 -100 0 -127 17 -155 14 -188 -19 -23 -23
-29 -26 -29 -12 0 9 14 30 30 46 33 32 38 53 15 61 -34 13 -130 -137 -123
-193 2 -23 8 -29 36 -31 26 -3 34 1 41 20 5 13 23 36 40 53 26 24 40 29 74 28
214 -7 302 1 318 28 4 8 19 29 33 48 21 28 26 46 26 90 0 87 -24 149 -78 204
-63 65 -92 80 -191 93 -96 14 -126 32 -149 87 -13 34 -13 40 0 54 14 13 19 13
44 0 16 -8 38 -24 48 -36 11 -12 27 -21 37 -21 10 0 21 -4 24 -10 11 -18 116
-11 162 11 74 36 114 104 81 137 -18 18 -37 14 -61 -13 -28 -32 -106 -38 -137
-10 -31 28 -26 75 12 108 34 30 35 30 126 -10 27 -12 48 -13 105 -5 59 8 76 7
96 -5 21 -13 23 -21 19 -63 -8 -78 -57 -128 -142 -141 -27 -5 -54 -13 -59 -18
-19 -19 21 -49 73 -56 41 -6 57 -2 99 19 101 50 159 145 166 272 4 72 2 85
-16 109 -12 14 -32 31 -45 35 -37 14 -30 32 10 25 39 -8 53 6 30 29 -14 15
-22 17 -64 20 -27 2 -135 49 -143 63 -15 24 -52 14 -88 -24z m153 -62 c48 -20
48 -29 1 -28 -21 0 -64 -3 -95 -8 -52 -7 -58 -6 -58 10 0 9 9 30 20 46 23 32
8 34 132 -20z"/>
<path d="M17350 2157 c0 -19 33 -47 53 -47 22 0 22 23 -1 43 -22 20 -52 22
-52 4z"/>
<path d="M17440 2100 c0 -12 9 -22 23 -25 43 -11 95 -139 95 -234 0 -63 11
-89 31 -77 7 4 9 41 7 99 -3 76 -8 102 -31 150 -16 33 -35 61 -44 65 -9 3 -24
13 -34 24 -23 24 -47 23 -47 -2z"/>
<path d="M15875 2036 c-17 -12 -15 -54 2 -43 5 3 21 -5 37 -18 l29 -23 -26
-31 c-14 -18 -29 -48 -32 -69 -4 -20 -11 -48 -16 -62 -6 -17 -4 -42 6 -80 21
-80 19 -125 -7 -150 -12 -11 -32 -20 -44 -20 -31 0 -50 -25 -34 -45 16 -19 50
-19 119 0 58 15 106 53 115 91 6 22 26 34 26 15 0 -4 18 -28 39 -52 52 -59
111 -76 208 -59 84 14 116 39 144 114 18 50 19 62 9 128 -16 104 -16 110 -2
115 7 3 12 -4 12 -16 0 -11 4 -23 10 -26 5 -3 17 -32 26 -63 24 -82 48 -125
88 -155 45 -35 76 -47 162 -62 123 -22 164 -53 164 -124 0 -16 -6 -34 -13 -40
-16 -13 -63 -9 -95 8 -21 11 -105 13 -144 4 -10 -2 -18 -13 -18 -24 0 -16 7
-19 56 -19 30 0 78 -7 106 -17 39 -13 55 -14 69 -5 10 7 28 12 39 12 24 0 50
47 50 91 0 46 -47 115 -90 132 -46 19 -105 35 -160 42 -52 7 -102 35 -129 73
-10 15 -30 64 -44 109 -21 69 -22 84 -11 94 29 24 5 66 -28 48 -14 -7 -23 -7
-34 2 -10 8 -21 9 -41 1 -54 -20 -81 -21 -149 -6 -38 8 -87 17 -109 20 -65 9
-67 11 -53 34 11 17 10 22 -2 30 -14 9 -61 15 -105 13 -32 -2 -83 17 -89 32
-7 19 -17 19 -41 1z m150 -105 c-7 -24 11 -37 30 -21 15 12 31 -3 20 -19 -9
-15 27 -29 61 -24 36 6 78 -13 129 -58 39 -35 45 -71 21 -117 -8 -15 -17 -34
-19 -43 -3 -9 -27 -21 -60 -28 -47 -12 -61 -11 -100 2 -25 8 -48 12 -52 9 -10
-11 -25 21 -25 54 0 33 -22 60 -40 49 -6 -4 -8 -24 -4 -54 5 -36 2 -58 -11
-85 -10 -20 -21 -36 -25 -36 -4 0 -11 33 -14 73 -3 39 -9 93 -12 119 -8 60 10
118 36 118 21 0 40 28 40 59 0 12 7 21 16 21 11 0 13 -6 9 -19z m378 -261 c5
-24 -14 -73 -40 -101 -20 -22 -37 -28 -89 -34 -106 -11 -142 13 -52 36 70 18
118 64 118 112 l0 36 30 -17 c16 -9 31 -24 33 -32z"/>
<path d="M16020 1876 c-7 -9 -10 -23 -6 -31 11 -29 60 -10 54 21 -4 24 -31 29
-48 10z"/>
<path d="M15981 1806 c-15 -18 -3 -46 20 -46 25 0 35 26 19 45 -15 19 -24 19
-39 1z"/>
<path d="M17687 1933 c-3 -10 -4 -70 -3 -133 1 -105 3 -119 28 -162 15 -28 22
-48 15 -48 -18 1 -64 45 -72 69 -4 13 -13 21 -23 19 -49 -9 3 -100 76 -134 51
-23 81 -49 125 -108 20 -26 35 -36 50 -34 33 5 31 29 -5 77 -75 97 -89 118
-113 168 -32 66 -35 85 -38 203 -2 79 -5 95 -19 98 -9 2 -18 -5 -21 -15z"/>
<path d="M17580 1726 c0 -7 7 -19 15 -26 12 -10 16 -9 21 3 3 9 3 21 -1 27 -9
15 -35 12 -35 -4z"/>
</g>
</svg>
